<?xml version="1.0" standalone="no"?>
<!DOCTYPE svg PUBLIC "-//W3C//DTD SVG 20010904//EN"
 "http://www.w3.org/TR/2001/REC-SVG-20010904/DTD/svg10.dtd">
<svg version="1.0" xmlns="http://www.w3.org/2000/svg"
 width="1019.000000pt" height="786.000000pt" viewBox="0 0 1019.000000 786.000000"
 preserveAspectRatio="xMidYMid meet">
<metadata>
Created by potrace 1.16, written by Peter Selinger 2001-2019
</metadata>
<g transform="translate(0.000000,786.000000) scale(0.100000,-0.100000)"
fill="#000000" stroke="none">
<path d="M1004 7727 c-2 -7 -3 -80 -2 -162 l3 -150 50 -5 c28 -3 62 -13 78
-24 25 -17 28 -17 53 -2 34 23 39 41 20 71 -21 32 -68 34 -89 4 -12 -16 -23
-20 -53 -17 l-39 3 0 105 0 105 168 3 167 2 0 -110 0 -110 -34 0 c-30 0 -35 4
-41 30 -8 34 -43 66 -90 79 -41 11 -85 3 -85 -15 0 -11 9 -13 40 -8 36 6 43 3
75 -29 47 -47 49 -95 5 -139 -25 -25 -36 -29 -72 -26 -33 2 -44 -1 -46 -13 -4
-21 39 -30 83 -18 38 11 83 52 91 85 5 19 14 23 52 26 l47 3 0 160 0 160 -188
3 c-148 2 -189 0 -193 -11z"/>
<path d="M3491 7730 c-18 -4 -48 -22 -65 -39 -26 -27 -31 -39 -31 -81 0 -41 5
-54 32 -82 18 -18 40 -51 50 -73 l18 -40 3 54 c3 45 0 56 -17 68 -41 28 -14
86 28 63 12 -6 21 -16 21 -21 0 -6 9 -1 19 12 16 20 23 22 38 13 29 -18 28
-52 -1 -66 -23 -10 -26 -17 -26 -59 0 -61 12 -68 34 -21 10 20 31 53 47 73 39
49 40 114 4 158 -14 16 -34 32 -43 35 -42 11 -79 14 -111 6z"/>
<path d="M8109 7730 c-93 -16 -89 -6 -89 -214 l0 -183 27 -12 c15 -7 48 -15
73 -18 l45 -5 -3 150 -3 151 25 16 c14 9 52 19 86 22 57 6 60 7 60 33 0 15 -6
32 -13 38 -12 10 -128 33 -152 31 -5 -1 -31 -5 -56 -9z"/>
<path d="M347 7652 c-36 -42 -84 -99 -107 -127 l-41 -50 24 -20 c169 -142 188
-156 206 -143 9 7 59 46 109 87 l92 73 -30 37 c-17 20 -49 58 -71 85 -22 27
-57 69 -78 92 l-38 44 -66 -78z m110 -54 c29 -27 29 -57 1 -93 -16 -21 -22
-42 -23 -81 0 -29 -6 -59 -13 -66 -21 -21 -41 20 -42 83 0 38 -5 61 -15 69
-21 18 -19 66 5 90 26 26 58 25 87 -2z"/>
<path d="M5027 7652 c-36 -42 -84 -99 -107 -127 l-41 -50 24 -20 c169 -142
188 -156 206 -143 9 7 59 46 109 87 l92 73 -30 37 c-17 20 -49 58 -71 85 -22
27 -57 69 -78 92 l-38 44 -66 -78z m98 -22 c9 -10 15 -26 12 -33 -7 -20 53
-77 81 -77 30 0 42 -48 17 -66 -10 -8 -28 -11 -39 -9 -27 6 -63 -24 -68 -56
-4 -33 -52 -39 -68 -9 -6 11 -8 25 -5 30 8 13 -53 42 -74 35 -20 -6 -51 18
-51 39 0 18 22 36 44 36 30 0 76 49 76 81 0 46 44 63 75 29z"/>
<path d="M7230 7600 l0 -110 105 0 105 0 0 110 0 110 -105 0 -105 0 0 -110z
m188 -12 l-3 -73 -65 -3 c-108 -5 -110 -3 -110 78 l0 70 90 0 91 0 -3 -72z"/>
<path d="M1908 7660 c-22 -22 -50 -40 -62 -40 -32 0 -66 -28 -82 -66 -27 -66
24 -134 100 -134 22 0 47 -7 57 -16 37 -33 91 4 69 47 -13 23 -47 25 -71 3
-13 -12 -28 -14 -59 -9 -54 9 -80 35 -80 79 0 43 29 66 81 66 31 0 38 4 43 25
8 31 60 65 99 65 65 0 117 -54 117 -122 0 -25 6 -36 22 -43 29 -13 35 -45 12
-62 -10 -7 -35 -13 -55 -13 -32 0 -40 5 -58 35 -11 19 -33 40 -48 46 -32 12
-75 8 -80 -7 -2 -6 10 -8 31 -6 28 3 40 -1 61 -23 51 -56 13 -140 -60 -133
-19 2 -35 -1 -35 -7 -1 -17 70 -17 96 -1 13 9 31 30 39 46 14 26 21 30 59 30
58 0 76 8 87 36 11 31 -4 70 -30 79 -15 4 -21 15 -21 36 0 74 -61 129 -144
129 -43 0 -53 -4 -88 -40z"/>
<path d="M5784 7582 c-121 -199 -135 -227 -122 -240 17 -17 412 -17 426 1 10
12 -9 47 -162 300 -22 35 -42 57 -53 57 -12 0 -41 -38 -89 -118z"/>
<path d="M9642 7668 c-11 -18 -34 -60 -53 -94 l-33 -60 53 -92 53 -92 112 0
111 1 53 89 c28 48 52 91 52 95 0 4 -23 47 -52 96 l-52 89 -112 0 -112 0 -20
-32z m225 -50 c21 -19 23 -30 23 -113 0 -57 -4 -95 -12 -103 -8 -8 -46 -12
-103 -12 -57 0 -95 4 -103 12 -13 13 -18 219 -5 231 3 4 45 7 92 7 73 0 88 -3
108 -22z"/>
<path d="M9680 7515 l0 -95 90 0 90 0 0 75 c0 60 -3 75 -15 75 -8 0 -15 9 -15
20 0 18 -7 20 -75 20 l-75 0 0 -95z"/>
<path d="M6648 7668 c-2 -19 -8 -23 -36 -20 -33 2 -33 2 -26 -33 6 -33 5 -35
-20 -35 -28 0 -36 -24 -11 -34 8 -3 15 -12 15 -21 0 -9 -7 -18 -15 -21 -25
-10 -17 -34 11 -34 23 0 25 -3 22 -32 -3 -31 -1 -33 27 -33 23 0 31 -5 33 -22
4 -26 27 -31 36 -8 3 8 12 15 21 15 9 0 18 -7 21 -15 9 -23 32 -18 36 8 2 17
10 22 33 22 27 0 30 3 30 30 0 23 5 31 23 33 25 4 30 30 7 38 -8 4 -15 13 -15
20 0 8 7 17 15 20 23 9 18 32 -7 36 -19 2 -23 8 -20 36 2 36 -20 45 -37 14 -7
-14 -5 -30 10 -60 18 -35 19 -47 10 -75 -22 -65 -77 -96 -136 -77 -49 16 -75
53 -75 107 0 45 24 80 74 108 14 8 17 17 12 33 -9 29 -34 28 -38 0z"/>
<path d="M4090 7516 l0 -134 48 15 c67 22 269 22 345 1 l57 -16 0 134 c0 74
-3 134 -7 134 -5 -1 -35 -7 -68 -15 -33 -8 -100 -15 -150 -15 -49 0 -117 7
-150 15 -33 8 -63 14 -67 15 -5 0 -8 -60 -8 -134z m238 72 c7 -7 20 -13 30
-13 9 0 17 -7 17 -15 0 -8 7 -21 15 -27 13 -12 13 -15 -2 -26 -9 -7 -16 -22
-15 -33 2 -14 -4 -18 -20 -17 -15 2 -23 -3 -23 -12 0 -18 -26 -20 -37 -2 -4 6
-15 12 -23 12 -8 0 -15 8 -15 18 0 10 -7 22 -15 27 -12 8 -13 13 -2 30 6 11
12 27 12 36 0 11 6 15 19 11 12 -3 22 1 25 9 7 17 18 18 34 2z"/>
<path d="M9004 7616 c-19 -19 -34 -42 -34 -52 0 -13 6 -8 17 14 19 39 59 62
109 62 54 0 104 -53 104 -110 0 -57 -50 -110 -104 -110 -50 0 -90 23 -109 62
-9 18 -17 26 -17 16 0 -9 11 -30 26 -47 24 -29 24 -31 8 -56 -16 -24 -15 -25
4 -25 12 0 25 -8 30 -17 8 -14 12 -11 27 17 l17 34 29 -35 c22 -27 29 -30 29
-15 0 14 6 17 25 14 l24 -5 -19 27 -19 27 24 23 c83 78 25 210 -92 210 -38 0
-51 -6 -79 -34z"/>
<path d="M2718 7590 c-16 -16 -37 -30 -47 -30 -24 0 -48 -20 -56 -47 -4 -17 1
-30 19 -48 25 -25 30 -26 132 -23 90 3 109 6 118 21 9 15 7 21 -8 32 -10 8
-20 29 -21 47 -4 39 -44 78 -81 78 -15 0 -38 -13 -56 -30z"/>
<path d="M8223 7599 l-33 -10 0 -134 c0 -158 1 -159 110 -158 109 0 110 1 110
154 l0 130 -35 15 c-38 16 -103 17 -152 3z"/>
<path d="M9035 7585 c-49 -49 -15 -135 54 -135 33 0 81 48 81 82 0 29 -53 78
-85 78 -14 0 -37 -11 -50 -25z"/>
<path d="M1927 6586 c-20 -8 -45 -20 -54 -27 -22 -19 -43 -72 -43 -108 0 -17
-7 -34 -15 -39 -13 -7 -15 -29 -13 -133 l3 -124 170 0 170 0 3 128 c2 104 0
127 -12 127 -9 0 -16 17 -21 48 -4 26 -14 59 -22 73 -31 53 -105 77 -166 55z
m111 -82 c14 -15 22 -38 22 -60 l0 -34 -85 0 -85 0 0 38 c1 85 92 120 148 56z"/>
<path d="M4193 6590 c-86 -18 -83 -11 -83 -185 0 -149 1 -155 23 -169 35 -23
87 -30 87 -13 0 23 40 67 60 67 10 0 32 14 48 30 17 17 40 30 51 30 20 0 21 6
21 91 0 50 -4 99 -10 109 -18 33 -124 54 -197 40z"/>
<path d="M6582 6590 c-29 -4 -67 -14 -84 -21 -30 -12 -30 -14 -25 -63 3 -28
11 -82 17 -119 10 -57 16 -70 39 -81 66 -35 229 -27 264 12 23 26 55 216 39
235 -26 30 -161 51 -250 37z"/>
<path d="M1253 6579 c11 -7 17 -22 17 -49 0 -36 -3 -40 -24 -40 -21 0 -25 5
-29 38 l-4 37 -1 -37 c-2 -30 -6 -38 -21 -38 -15 0 -21 8 -24 38 l-4 37 -1
-37 c-2 -31 -6 -38 -23 -38 -19 0 -21 5 -18 44 2 24 1 42 -3 39 -5 -2 -8 -22
-8 -44 0 -38 -1 -39 -35 -39 -31 0 -35 -3 -39 -32 -5 -31 -16 -277 -13 -279 1
0 68 -6 149 -12 141 -12 147 -12 170 8 23 20 23 21 14 163 -6 93 -13 142 -20
141 -6 -1 -21 2 -33 6 -18 6 -23 15 -23 44 0 37 -14 61 -34 61 -6 0 -3 -5 7
-11z"/>
<path d="M7454 6580 c-12 -5 -29 -19 -38 -31 -13 -20 -18 -21 -41 -11 -14 7
-33 12 -41 12 -24 0 -64 -47 -64 -75 0 -14 -7 -28 -15 -32 -23 -8 -47 -61 -39
-86 3 -12 16 -32 27 -44 18 -20 30 -23 99 -23 62 0 78 3 78 15 0 17 -36 39
-51 29 -6 -3 -8 -13 -5 -21 5 -12 1 -14 -21 -8 -36 9 -35 8 -27 39 5 22 9 24
21 15 19 -16 36 1 31 32 -2 18 -9 23 -25 22 -26 -3 -43 35 -22 48 21 13 39 11
39 -5 0 -20 23 -26 43 -11 19 13 23 45 7 45 -7 0 -7 6 0 20 6 11 16 20 23 20
7 0 18 -9 25 -20 7 -12 8 -20 2 -20 -16 0 -11 -32 7 -45 20 -15 43 -9 43 11 0
15 18 18 37 6 20 -13 4 -52 -21 -49 -15 1 -22 -4 -24 -22 -4 -27 16 -45 35
-30 9 8 14 4 19 -16 4 -18 2 -30 -7 -36 -22 -14 -42 -11 -36 5 3 8 -1 17 -9
20 -20 8 -54 -11 -54 -29 0 -12 16 -15 74 -15 82 0 118 18 130 65 8 31 -16 81
-44 90 -15 5 -20 15 -20 43 -1 73 -69 119 -136 92z"/>
<path d="M5905 6553 c-16 -10 -48 -18 -69 -18 -28 -1 -44 -8 -59 -26 l-19 -24
34 -6 c18 -3 39 -8 45 -12 6 -4 24 4 40 19 15 14 40 28 55 31 15 3 28 12 28
19 0 21 14 17 40 -11 l23 -25 -23 -25 c-27 -28 -40 -32 -40 -10 0 18 -8 18
-39 1 l-25 -14 32 -7 c32 -6 82 -55 82 -79 0 -7 8 -20 18 -29 17 -16 20 -16
39 6 34 37 37 61 8 95 -14 16 -25 37 -25 46 0 25 -52 76 -85 81 -18 3 -42 -2
-60 -12z"/>
<path d="M8232 6550 c-12 -5 -27 -21 -34 -35 -6 -14 -14 -24 -17 -22 -52 27
-64 30 -89 21 -20 -7 -29 -19 -37 -49 -5 -22 -21 -49 -34 -61 -48 -41 -19
-124 43 -124 16 0 25 -9 34 -34 17 -46 61 -65 97 -42 15 10 29 24 32 31 4 13
8 13 26 0 31 -22 46 -19 65 15 11 20 25 30 40 30 79 0 107 100 37 132 -20 9
-25 18 -25 49 0 69 -73 117 -138 89z m58 -81 c0 -6 9 -8 20 -4 16 5 20 2 20
-14 0 -12 5 -21 10 -21 6 0 10 -7 10 -15 0 -8 -4 -15 -10 -15 -5 0 -10 -9 -10
-20 0 -13 -7 -20 -19 -20 -11 0 -23 -5 -27 -11 -4 -8 -9 -8 -17 0 -6 6 -16 11
-23 11 -12 0 -27 -35 -25 -57 1 -7 -7 -13 -19 -13 -11 0 -20 -4 -20 -10 0 -5
-7 -10 -15 -10 -8 0 -15 5 -15 10 0 6 -8 10 -17 8 -11 -2 -19 5 -21 17 -3 11
-9 23 -16 27 -8 5 -7 11 2 20 6 6 12 20 12 31 0 14 5 17 20 12 11 -4 20 -2 20
4 0 6 7 11 15 11 8 0 15 -4 15 -8 0 -4 8 -8 19 -8 12 0 17 6 13 18 -2 10 0 18
6 18 5 0 9 8 8 18 -1 11 5 16 17 14 9 -2 17 2 17 8 0 5 7 10 15 10 8 0 15 -5
15 -11z"/>
<path d="M9645 6521 c-98 -44 -120 -178 -42 -259 32 -34 79 -52 135 -52 l32 0
0 55 0 55 -39 0 c-47 0 -71 20 -71 59 0 36 19 51 70 58 l40 6 0 48 0 49 -42 0
c-24 0 -61 -9 -83 -19z"/>
<path d="M9868 6487 c51 -52 52 -54 52 -113 0 -61 0 -61 -54 -113 l-55 -51 95
0 94 0 0 165 0 165 -92 0 -92 0 52 -53z"/>
<path d="M2841 6486 c-24 -24 -48 -55 -55 -67 -6 -13 -24 -30 -40 -38 -19 -9
-25 -16 -17 -24 16 -16 -1 -39 -72 -96 -36 -29 -70 -64 -76 -78 l-12 -26 27
18 c15 9 54 46 86 81 42 44 66 63 81 61 14 -1 25 7 35 26 7 15 17 27 22 27 5
0 39 25 75 56 49 42 63 59 53 65 -7 5 -14 4 -16 -1 -2 -6 -10 -10 -18 -10 -9
0 -13 -4 -10 -9 4 -5 -13 -25 -36 -45 -31 -27 -44 -33 -50 -24 -11 18 -10 40
1 33 11 -6 101 81 93 90 -12 12 -30 2 -71 -39z"/>
<path d="M225 6423 c-9 -54 -20 -115 -25 -135 -5 -23 -4 -40 3 -47 15 -15 409
-15 423 -1 10 10 -9 158 -31 258 -5 22 -7 22 -179 22 l-174 0 -17 -97z m200
28 c-5 -32 -2 -40 25 -66 16 -16 30 -23 30 -17 0 7 5 12 10 12 6 0 10 -13 10
-30 0 -27 -3 -30 -30 -30 -29 0 -42 14 -19 22 6 2 1 12 -10 22 -21 19 -21 19
-21 -22 0 -33 4 -42 17 -42 14 0 12 -4 -7 -25 l-24 -25 -20 21 c-15 15 -17 23
-8 26 6 3 12 21 12 40 0 31 -2 34 -16 22 -10 -8 -12 -15 -5 -17 22 -7 10 -22
-19 -22 -27 0 -30 3 -30 30 0 17 5 30 10 30 6 0 10 -6 10 -12 0 -7 11 1 25 17
20 24 24 37 19 64 -6 36 8 54 33 44 10 -4 13 -16 8 -42z"/>
<path d="M3522 6492 c-24 -25 -29 -27 -52 -15 -14 7 -34 10 -45 7 -27 -8 -55
-42 -55 -67 0 -12 -12 -33 -27 -49 -36 -37 -36 -83 1 -115 26 -22 34 -23 191
-23 157 0 165 1 191 23 39 34 38 82 -4 117 -23 19 -32 35 -32 57 0 19 -10 44
-26 62 -22 26 -33 31 -71 31 -36 0 -50 -5 -71 -28z m100 -69 c24 -22 24 -77
-2 -103 -12 -12 -33 -20 -53 -20 -23 0 -41 -8 -57 -25 -27 -29 -48 -32 -57 -9
-3 9 5 27 22 44 15 16 24 33 20 40 -9 15 2 55 21 74 20 21 83 20 106 -1z"/>
<path d="M8957 6499 c-11 -6 -25 -26 -33 -45 -8 -19 -20 -34 -27 -34 -15 0
-81 -33 -102 -50 -9 -7 -15 -29 -15 -51 0 -64 16 -69 221 -69 158 0 178 2 192
18 21 23 22 75 3 91 -8 7 -18 26 -21 42 -8 35 -51 71 -81 67 -12 -2 -31 5 -41
14 -25 23 -73 31 -96 17z"/>
<path d="M5026 6428 c-22 -23 -49 -41 -58 -39 -48 7 -107 -62 -91 -107 12 -33
46 -62 75 -62 15 0 27 3 26 8 -4 18 15 62 27 62 7 0 18 -12 23 -27 6 -16 11
-21 11 -12 1 14 15 17 87 17 86 1 86 1 81 -24 -4 -22 -1 -24 34 -24 28 0 41 5
49 20 13 25 -1 56 -30 65 -16 5 -20 15 -20 48 l0 41 -42 -41 c-62 -59 -116
-81 -133 -53 -13 20 17 79 60 119 23 22 40 42 37 45 -3 3 -25 6 -50 6 -39 0
-49 -5 -86 -42z"/>
<path d="M5754 6430 c-28 -11 -54 -48 -54 -76 0 -12 -6 -24 -14 -27 -24 -10
-35 -60 -20 -95 18 -44 47 -52 175 -52 114 0 160 12 173 45 12 33 6 75 -14 92
-11 10 -20 25 -20 35 0 10 -10 28 -21 39 -17 17 -29 20 -57 16 -26 -5 -41 -1
-60 13 -26 21 -53 24 -88 10z m131 -80 c40 -40 16 -120 -41 -134 -28 -7 -79
16 -88 39 -34 90 62 160 129 95z"/>
<path d="M6516 6243 c3 -21 13 -46 21 -55 19 -22 100 -39 149 -31 65 10 91 28
98 69 9 44 5 49 -26 33 -36 -20 -176 -18 -216 4 l-33 18 7 -38z"/>
<path d="M1907 5450 c-27 -5 -59 -16 -73 -24 -24 -16 -24 -17 -24 -190 0 -127
3 -176 13 -183 51 -41 207 -49 275 -14 l42 21 0 176 0 175 -42 19 c-54 23
-129 31 -191 20z m163 -23 c66 -33 -10 -72 -123 -63 -69 5 -97 17 -97 41 0 8
12 18 28 23 39 15 163 14 192 -1z"/>
<path d="M5818 5446 c-63 -17 -111 -56 -138 -112 -80 -164 62 -350 239 -313
45 9 63 20 106 63 42 42 55 62 63 103 35 159 -113 301 -270 259z m150 -25 c20
-10 45 -27 54 -38 29 -31 58 -106 58 -149 0 -75 -60 -162 -132 -190 -15 -5
-18 0 -19 25 -1 17 -2 37 -3 43 -1 7 8 14 19 16 41 8 65 42 65 93 0 26 -4 50
-9 54 -5 3 -9 19 -9 35 1 38 -1 40 -32 28 -34 -14 -138 -13 -173 1 -16 6 -30
11 -32 11 -3 0 -8 -29 -20 -117 -7 -50 12 -85 55 -99 33 -11 35 -14 32 -50 -2
-22 -5 -40 -7 -42 -6 -6 -80 36 -96 54 -46 53 -64 153 -38 221 14 37 66 92
104 109 45 20 139 17 183 -5z"/>
<path d="M9732 5445 c-18 -8 -31 -19 -28 -24 4 -5 19 -3 36 5 25 13 34 13 57
2 34 -16 50 -58 37 -95 -12 -36 -54 -51 -96 -35 -38 14 -49 8 -22 -13 41 -31
126 -7 145 42 8 22 13 25 42 19 47 -9 57 -30 57 -116 0 -91 -13 -110 -78 -110
-25 0 -42 -5 -42 -11 0 -21 99 -4 123 20 19 19 22 33 22 107 0 82 -1 87 -28
110 -16 14 -41 24 -58 24 -22 0 -32 6 -39 24 -18 48 -79 72 -128 51z"/>
<path d="M5057 5433 c-14 -16 -14 -20 1 -38 9 -11 29 -26 45 -32 15 -7 27 -21
27 -31 0 -23 25 -47 63 -61 33 -13 44 -36 26 -57 -18 -22 -52 -13 -66 17 -7
15 -20 32 -28 39 -13 11 -15 5 -15 -43 0 -31 5 -59 10 -62 30 -18 -4 -71 -38
-60 -25 7 -34 41 -16 56 19 15 18 118 -1 143 -8 10 -12 22 -10 26 2 4 -7 18
-21 31 l-24 23 -61 -60 c-33 -32 -65 -66 -70 -76 -7 -13 14 -39 103 -127 l112
-112 113 113 c62 62 113 113 113 113 0 1 -48 49 -106 108 -58 59 -113 107
-123 107 -10 0 -25 -8 -34 -17z"/>
<path d="M2600 5399 l-62 -40 38 -34 c22 -19 45 -32 52 -30 19 7 112 69 112
75 0 3 -18 19 -39 37 l-39 32 -62 -40z"/>
<path d="M2807 5407 c-20 -18 -37 -35 -37 -39 0 -3 25 -22 56 -42 61 -38 64
-38 118 8 l29 24 -54 34 c-30 19 -58 37 -64 40 -5 3 -27 -8 -48 -25z"/>
<path d="M3330 5395 c0 -41 2 -45 25 -45 20 0 25 5 25 25 l0 26 153 -3 c149
-3 152 -3 155 -25 3 -17 10 -23 28 -23 22 0 24 4 24 45 l0 45 -205 0 -205 0 0
-45z"/>
<path d="M986 5414 c-3 -9 -6 -99 -6 -200 l0 -184 216 0 216 0 -6 23 c-3 12
-6 71 -6 130 l0 109 -53 -46 c-30 -25 -57 -43 -60 -39 -4 3 -7 24 -7 45 l0 40
-53 -46 c-30 -25 -57 -43 -60 -39 -4 3 -7 55 -7 115 0 65 -4 108 -10 108 -5 0
-9 -5 -7 -12 3 -19 -66 -33 -105 -21 -18 5 -32 15 -30 21 3 18 -15 14 -22 -4z"/>
<path d="M7246 5395 c-29 -31 -37 -67 -24 -111 8 -31 12 -34 46 -34 34 0 39 4
65 50 16 28 32 50 36 50 16 0 30 -26 33 -64 l3 -39 86 2 c66 2 88 -1 98 -13
22 -26 2 -36 -70 -36 l-69 0 -22 -45 c-37 -76 -68 -55 -68 45 0 43 -1 44 -15
23 -9 -13 -28 -23 -48 -25 l-32 -3 45 -45 c25 -25 62 -58 83 -74 l37 -29 38
26 c68 45 142 125 168 182 22 48 24 59 14 90 -28 86 -118 98 -193 27 -24 -23
-28 -24 -40 -10 -21 28 -81 58 -115 58 -22 0 -40 -8 -56 -25z"/>
<path d="M8029 5396 c-37 -37 -43 -79 -19 -133 29 -67 55 -98 131 -160 l69
-55 38 24 c64 43 144 130 169 184 29 63 23 104 -20 140 -40 34 -94 28 -146
-14 l-36 -29 -37 30 c-23 19 -52 31 -80 34 -37 4 -47 1 -69 -21z"/>
<path d="M6649 5383 c-1 -5 -1 -11 0 -15 0 -4 -10 -10 -23 -14 -31 -7 -90 -80
-82 -101 4 -8 13 -13 21 -9 13 5 14 2 4 -15 -14 -27 4 -50 23 -31 7 7 20 12
29 12 15 0 19 10 21 53 l3 52 12 -38 c17 -54 4 -79 -47 -95 -37 -11 -45 -11
-61 4 -10 9 -16 20 -13 25 2 4 -1 17 -8 29 -11 17 -10 25 4 50 24 42 4 37 -43
-10 -22 -22 -35 -40 -29 -40 5 0 10 -14 10 -30 0 -17 7 -44 15 -60 8 -16 12
-35 9 -43 -5 -15 21 -31 36 -22 5 3 11 18 15 33 5 25 9 27 40 24 38 -4 45 -16
18 -26 -15 -6 -15 -8 0 -23 16 -16 19 -15 47 12 37 35 47 69 29 92 -10 13 -5
11 22 -5 20 -12 40 -22 45 -22 5 0 1 5 -8 11 -10 5 -18 21 -18 34 l0 25 39
-20 c69 -36 115 1 114 93 -1 57 -5 62 -32 45 -15 -9 -21 -23 -21 -50 0 -21 -3
-38 -7 -38 -14 1 -44 50 -38 60 3 6 -1 13 -9 16 -9 3 -16 12 -16 19 0 7 -7 16
-16 19 -22 9 -84 7 -85 -1z"/>
<path d="M405 5356 c-24 -24 -31 -26 -52 -17 -13 6 -31 11 -39 11 -24 0 -64
-47 -64 -74 0 -15 -8 -30 -19 -35 -26 -14 -43 -65 -31 -95 19 -50 42 -56 215
-56 174 0 196 6 216 56 12 32 -11 90 -40 99 -16 5 -21 15 -21 43 -1 34 -18 72
-33 72 -4 0 -13 -13 -22 -30 -15 -30 -15 -30 10 -30 14 0 25 -4 25 -9 0 -14
-134 -163 -138 -153 -1 5 6 30 17 55 l20 47 -24 0 c-30 0 -31 5 -5 71 26 66
21 81 -15 45z"/>
<path d="M8955 5367 c-35 -16 -57 -40 -76 -82 -11 -24 -21 -31 -49 -33 -55 -4
-64 -10 -50 -27 7 -9 29 -15 51 -15 34 0 40 -4 53 -33 30 -74 153 -104 213
-53 23 20 26 27 15 37 -10 11 -18 10 -41 -4 -67 -39 -138 -6 -148 70 -5 37 -2
45 25 73 34 34 84 40 118 15 28 -21 54 -19 54 5 0 44 -105 74 -165 47z"/>
<path d="M4282 5358 c-7 -7 -12 -24 -12 -38 0 -32 -87 -122 -122 -125 -13 -1
-26 -3 -30 -4 -17 -3 -29 -41 -18 -61 13 -24 62 -27 80 -5 10 12 38 15 135 15
97 0 125 -3 135 -15 33 -40 104 -1 80 44 -10 21 -47 37 -58 27 -3 -4 -30 17
-59 46 -38 38 -53 60 -53 80 0 40 -51 63 -78 36z m108 -128 c27 -28 50 -55 50
-60 0 -6 -55 -10 -132 -10 -72 0 -129 2 -127 4 2 3 26 30 53 60 64 74 87 74
156 6z"/>
<path d="M9589 5351 c-22 -18 -24 -27 -24 -111 0 -84 2 -93 24 -111 13 -10 38
-19 55 -19 27 0 35 -6 49 -36 24 -49 74 -70 122 -50 39 17 50 43 13 31 -57
-18 -76 -17 -97 4 -27 27 -28 82 -3 104 22 20 64 22 92 5 10 -7 22 -9 26 -5
13 12 -20 37 -57 43 -28 5 -41 1 -67 -21 -18 -15 -32 -33 -32 -41 0 -10 -12
-14 -39 -14 -55 0 -71 25 -71 110 0 89 15 110 81 110 27 0 49 5 49 10 0 19
-96 11 -121 -9z"/>
<path d="M2576 5246 l-39 -33 54 -37 c30 -20 61 -36 69 -36 14 1 80 54 80 64
0 4 -118 77 -123 76 -1 -1 -20 -16 -41 -34z"/>
<path d="M2822 5241 l-64 -36 38 -32 c20 -18 43 -33 51 -33 11 0 123 68 123
75 0 1 -19 15 -43 32 l-42 31 -63 -37z"/>
<path d="M2707 5145 c-30 -29 -42 -34 -65 -29 -18 4 -4 -9 42 -39 l70 -45 55
35 c67 42 85 58 55 49 -15 -5 -33 4 -65 29 -24 19 -46 35 -49 35 -3 0 -22 -16
-43 -35z"/>
<path d="M3330 5070 l0 -50 206 0 205 0 -3 47 c-2 37 -7 49 -21 51 -12 3 -20
-4 -24 -17 -5 -20 -12 -21 -159 -21 -147 0 -154 1 -154 20 0 15 -7 20 -25 20
-23 0 -25 -3 -25 -50z"/>
<path d="M383 4305 c-37 -16 -53 -42 -53 -84 0 -29 9 -41 55 -79 11 -10 15
-26 13 -55 -2 -35 -7 -43 -25 -45 -33 -5 -31 -42 2 -42 16 0 25 -6 25 -15 0
-8 9 -15 20 -15 19 0 20 7 20 90 0 69 3 90 13 90 47 0 65 100 25 137 -32 29
-58 34 -95 18z"/>
<path d="M1358 4309 c-57 -9 -141 -53 -173 -91 -23 -27 -27 -28 -114 -28 l-91
0 0 -63 c0 -39 5 -71 14 -82 12 -17 12 -23 0 -47 -20 -39 -18 -50 20 -87 l34
-33 46 15 c39 13 46 13 57 1 8 -9 32 -14 75 -14 l64 0 0 93 c0 91 1 94 31 123
17 16 42 47 55 70 25 42 48 135 36 145 -4 3 -28 2 -54 -2z m-79 -133 l44 -45
-94 -94 -94 -95 -50 44 -50 44 95 95 c52 52 97 95 100 95 3 0 25 -20 49 -44z"/>
<path d="M1870 4300 c0 -11 5 -20 10 -20 6 0 10 -23 10 -50 0 -42 -11 -71 -60
-171 l-61 -121 19 -31 18 -32 169 0 169 0 18 31 18 31 -60 116 c-52 101 -60
124 -60 171 0 33 5 56 12 58 6 2 9 12 5 21 -5 14 -22 17 -107 17 -93 0 -100
-1 -100 -20z m141 -80 c4 -30 10 -65 14 -77 7 -21 4 -23 -32 -23 l-39 0 -49
-100 c-34 -69 -55 -100 -67 -100 -9 0 -19 4 -22 9 -3 5 23 65 59 133 48 93 65
135 65 165 0 47 6 55 40 51 22 -3 26 -9 31 -58z"/>
<path d="M3312 4098 l3 -223 33 -3 32 -3 0 104 c0 114 2 117 60 117 21 0 36
-10 61 -41 l33 -42 35 42 c26 29 44 41 63 41 56 0 58 -4 58 -117 l0 -104 33 3
32 3 0 220 0 220 -223 3 -222 2 2 -222z m277 156 c57 -47 30 -136 -46 -150
-27 -5 -37 -1 -63 24 -40 41 -41 83 -1 123 36 36 70 37 110 3z"/>
<path d="M4965 4308 c-3 -8 -4 -108 -3 -223 l3 -210 125 0 125 0 0 220 0 220
-123 3 c-94 2 -124 0 -127 -10z m160 -8 c3 -5 24 -10 46 -10 l39 0 -2 -187 -3
-188 -30 -3 c-16 -2 -33 -9 -37 -15 -6 -9 -11 -8 -18 3 -6 10 -10 11 -10 3 0
-8 -14 -13 -36 -13 -21 0 -33 4 -29 10 4 6 -6 10 -22 10 -50 0 -53 11 -53 186
0 89 3 169 6 178 4 11 19 16 45 16 21 0 39 5 39 10 0 6 13 10 29 10 17 0 33
-4 36 -10z"/>
<path d="M5000 4105 l0 -165 95 0 95 0 0 165 0 165 -95 0 -95 0 0 -165z m130
68 c34 -23 40 -33 40 -70 0 -25 -7 -36 -34 -52 -42 -26 -51 -26 -87 0 -46 33
-38 98 16 127 27 15 37 15 65 -5z"/>
<path d="M5753 4314 c-10 -4 -13 -58 -13 -220 0 -250 -16 -227 150 -222 l105
3 0 220 0 220 -115 2 c-63 1 -121 -1 -127 -3z m157 -14 c0 -5 18 -10 40 -10
l40 0 0 -180 0 -180 -115 0 -115 0 0 180 0 180 30 0 c17 0 30 5 30 10 0 6 20
10 45 10 25 0 45 -4 45 -10z"/>
<path d="M5784 4237 c-3 -8 -4 -36 -2 -63 3 -45 5 -49 31 -52 17 -2 27 -9 27
-19 0 -15 2 -15 18 0 9 8 37 17 62 19 l45 3 0 60 0 60 -88 3 c-68 2 -89 0 -93
-11z"/>
<path d="M7373 4310 c-46 -10 -84 -27 -95 -44 -11 -16 -10 -314 2 -335 25 -48
191 -72 257 -38 53 28 54 32 51 213 l-3 169 -35 17 c-45 21 -123 29 -177 18z
m172 -31 c15 -15 15 -18 1 -32 -44 -44 -260 -24 -232 22 15 23 51 31 133 28
60 -1 87 -6 98 -18z m-184 -171 l12 -30 13 31 c10 23 20 31 39 31 16 0 25 -6
25 -15 0 -9 9 -15 25 -15 20 0 25 -5 25 -25 0 -16 6 -25 15 -25 9 0 15 10 15
26 0 21 4 25 23 22 17 -2 23 -11 25 -35 5 -55 -12 -73 -67 -73 l-49 0 0 41
c-1 23 -3 44 -6 47 -3 3 -6 -9 -6 -26 0 -25 -4 -32 -20 -32 -11 0 -20 6 -21
13 0 10 -2 10 -6 0 -8 -22 -49 -15 -61 10 l-11 22 0 -23 c-1 -17 -6 -23 -18
-20 -25 4 -30 79 -8 101 21 21 40 12 56 -25z"/>
<path d="M8807 4313 c-28 -7 -37 -46 -37 -161 0 -141 8 -156 80 -160 49 -3 63
-9 128 -58 l74 -56 -4 54 -3 53 70 3 c100 4 105 12 105 162 0 172 9 165 -217
167 -98 1 -186 -1 -196 -4z m273 -142 c40 -66 69 -125 65 -130 -4 -7 -61 -11
-151 -11 -119 0 -146 3 -150 15 -4 8 14 47 38 87 25 40 56 92 68 116 14 24 31
42 41 42 12 0 42 -40 89 -119z"/>
<path d="M2653 4258 l-93 -52 0 -43 c0 -57 19 -56 56 3 76 121 201 117 280 -8
33 -53 54 -50 54 6 l0 44 -94 51 c-52 28 -98 51 -103 51 -4 -1 -50 -24 -100
-52z"/>
<path d="M6575 4301 c-16 -3 -30 -11 -30 -16 1 -48 56 -405 64 -408 3 -2 22 0
41 4 19 3 27 7 18 8 -31 2 -19 21 13 21 17 0 28 -4 24 -10 -7 -12 25 -13 43
-1 11 7 12 25 1 104 -7 53 -15 101 -19 106 -4 7 -26 7 -69 0 -51 -9 -65 -9
-71 2 -13 20 -23 130 -14 139 5 5 28 12 51 16 38 6 43 4 52 -17 5 -13 13 -41
16 -63 3 -21 9 -36 12 -33 2 3 -1 39 -8 81 l-12 76 -41 -1 c-22 -1 -54 -4 -71
-8z"/>
<path d="M8016 4288 c-10 -14 -16 -44 -16 -75 l0 -53 213 0 212 0 -45 39 c-39
34 -45 36 -48 20 -3 -18 -14 -19 -153 -19 l-149 0 0 35 c0 24 6 37 19 45 25
13 291 13 325 0 15 -5 26 -17 26 -28 0 -10 10 -27 22 -38 l21 -19 -6 40 c-11
71 -24 75 -228 75 -172 0 -178 -1 -193 -22z"/>
<path d="M268 4202 c-80 -90 -58 -232 45 -296 103 -64 223 -24 282 93 25 50
16 128 -20 183 l-28 43 -9 -27 c-7 -20 -5 -33 6 -50 23 -32 21 -115 -4 -155
-24 -41 -73 -66 -126 -66 -111 0 -188 118 -135 208 32 55 24 107 -11 67z"/>
<path d="M9754 4206 c-42 -19 -74 -62 -74 -102 0 -27 -4 -33 -28 -39 -16 -3
-41 -1 -56 5 -37 14 -36 15 -36 -30 0 -30 7 -47 25 -65 24 -25 26 -25 203 -25
159 0 181 2 195 18 22 24 11 61 -19 68 -20 5 -24 12 -24 45 0 21 -4 39 -8 39
-4 0 -30 -23 -57 -51 -96 -97 -172 -108 -150 -21 3 15 35 54 73 90 54 51 64
65 52 72 -21 13 -59 12 -96 -4z"/>
<path d="M2689 4161 c-23 -23 -29 -38 -29 -71 0 -58 33 -90 95 -90 35 0 52 6
70 25 58 57 12 165 -70 165 -27 0 -44 -8 -66 -29z"/>
<path d="M4312 4180 c-12 -5 -30 -23 -40 -40 -9 -16 -21 -30 -27 -30 -5 0 -19
-8 -30 -16 -18 -14 -14 -15 55 -10 41 3 84 5 94 6 39 2 50 -62 15 -81 -16 -8
-28 -8 -46 0 -13 6 -51 11 -83 11 -66 0 -76 -12 -39 -46 17 -15 40 -20 122
-22 123 -5 171 7 192 48 8 16 15 38 15 48 0 26 -35 69 -63 78 -12 4 -37 20
-55 35 -34 30 -68 35 -110 19z"/>
<path d="M8045 4090 c40 -41 40 -41 43 -16 l3 26 155 0 154 0 0 -40 c0 -29 -5
-42 -19 -50 -11 -5 -87 -10 -173 -10 -158 0 -178 5 -178 41 0 9 -7 22 -15 29
-13 11 -15 8 -15 -18 0 -44 23 -62 80 -62 41 0 57 -6 106 -43 93 -68 88 -67
80 -10 l-6 51 74 4 c42 2 81 9 88 16 7 7 12 36 13 65 l0 52 -215 3 -214 2 39
-40z"/>
<path d="M2560 4023 c0 -38 1 -39 94 -90 52 -29 98 -53 102 -53 4 0 50 25 101
56 88 54 93 59 93 90 0 47 -29 45 -55 -3 -29 -54 -77 -83 -137 -83 -70 0 -122
31 -152 92 -6 13 -19 24 -29 26 -14 3 -17 -4 -17 -35z"/>
<path d="M1222 3170 c-38 -9 -77 -42 -98 -82 -9 -18 -14 -60 -14 -123 l0 -95
91 0 c100 0 145 15 179 57 30 38 41 91 30 134 -10 37 -78 109 -103 109 -6 0
-21 2 -32 4 -11 3 -35 1 -53 -4z"/>
<path d="M1752 2958 l3 -223 93 -3 c50 -1 92 -1 92 2 0 3 -10 22 -22 42 -47
80 -16 204 61 240 60 29 119 29 174 1 l48 -25 -3 92 -3 91 -223 3 -222 2 2
-222z"/>
<path d="M2580 3173 c-36 -13 -40 -34 -40 -215 0 -177 0 -179 25 -203 24 -25
27 -25 190 -25 163 0 166 0 190 25 24 23 25 28 25 178 l0 154 -50 47 -49 46
-138 -1 c-76 0 -145 -3 -153 -6z m290 -58 c0 -33 2 -35 35 -35 l36 0 -3 -157
-3 -158 -174 -3 c-119 -2 -178 1 -187 9 -11 9 -14 49 -14 179 0 93 3 175 6
184 5 14 28 16 155 16 l149 0 0 -35z"/>
<path d="M3478 3166 c-63 -17 -111 -56 -138 -112 -80 -164 62 -350 239 -313
45 9 63 20 106 63 42 41 55 62 63 102 35 162 -111 303 -270 260z m152 -35 c44
-23 91 -97 97 -154 13 -114 -78 -216 -192 -217 -52 0 -136 40 -162 76 -59 82
-50 188 22 259 65 65 152 79 235 36z"/>
<path d="M5067 3167 c-52 -16 -106 -62 -124 -106 -20 -46 -19 -130 1 -168 22
-43 79 -90 126 -104 22 -7 40 -18 40 -26 0 -20 13 -15 34 13 18 26 18 26 -8
52 -21 22 -26 23 -26 9 0 -41 -86 1 -127 62 -67 99 -16 227 104 264 26 8 41
15 33 15 -8 0 -32 -5 -53 -11z"/>
<path d="M7244 3167 c-2 -7 -3 -82 -2 -167 l3 -155 58 -3 c52 -3 57 -1 57 18
0 17 -6 20 -40 20 -38 0 -40 1 -40 33 -1 17 -7 43 -15 57 -18 32 -18 40 0 40
12 0 15 14 15 65 0 58 2 65 20 65 18 0 20 -7 20 -73 0 -40 -4 -77 -9 -82 -6
-6 -3 -19 10 -35 l19 -25 19 25 c13 16 16 29 10 35 -5 5 -9 51 -9 102 l0 93
-55 0 c-36 0 -57 -5 -61 -13z"/>
<path d="M8034 3167 c-2 -7 -3 -82 -2 -167 l3 -155 43 -3 c37 -3 42 -1 42 17
0 16 -6 21 -25 21 l-25 0 0 130 0 130 35 0 c33 0 35 -2 35 -35 0 -24 5 -35 15
-35 12 0 15 13 15 55 l0 55 -65 0 c-44 0 -67 -4 -71 -13z"/>
<path d="M430 3161 c-8 -5 -57 -24 -107 -41 l-93 -33 0 -128 c0 -74 4 -130 10
-134 6 -3 10 -2 10 4 0 5 14 12 30 16 l30 7 0 108 0 109 38 11 c20 6 56 13 80
17 l42 6 0 -150 c0 -82 -2 -152 -5 -154 -2 -3 -46 0 -97 7 -51 7 -94 12 -95
10 -2 -1 41 -20 94 -41 102 -41 114 -41 206 -6 l27 11 -2 176 -3 177 -50 18
c-56 20 -93 23 -115 10z"/>
<path d="M6597 3144 c-14 -19 -16 -28 -7 -39 6 -7 10 -38 8 -72 l-3 -58 -57
-3 -58 -3 0 -64 c0 -60 2 -65 24 -71 37 -9 70 -1 74 19 3 14 -4 17 -33 17 -35
0 -36 1 -33 33 3 30 6 32 46 35 l42 3 0 -65 c0 -47 -4 -65 -14 -68 -11 -2 -9
-11 9 -36 l23 -33 20 33 c18 27 19 34 7 36 -22 5 -22 287 -1 299 12 7 10 13
-7 35 l-22 26 -18 -24z"/>
<path d="M9738 3154 c-16 -8 -28 -18 -28 -22 0 -6 134 -88 162 -100 4 -2 24 6
44 19 l36 22 -84 48 c-45 27 -87 48 -93 48 -5 0 -22 -7 -37 -15z"/>
<path d="M4132 3148 c-8 -8 -12 -65 -12 -189 0 -148 3 -180 16 -193 13 -13 44
-16 178 -16 145 0 165 2 179 18 14 16 17 43 17 168 l0 150 -44 37 -45 37 -138
0 c-95 0 -143 -4 -151 -12z m288 -43 c0 -33 2 -35 35 -35 l35 0 0 -140 c0
-127 -2 -140 -19 -150 -21 -11 -288 -14 -315 -4 -14 5 -16 31 -16 178 0 95 3
176 7 179 3 4 66 7 140 7 l133 0 0 -35z"/>
<path d="M5063 3110 c-43 -26 -64 -61 -65 -107 -1 -71 62 -152 96 -124 10 9
16 8 26 -4 7 -8 19 -15 27 -15 27 0 74 31 93 63 40 64 15 158 -49 192 -43 22
-60 20 -54 -6 4 -16 2 -20 -8 -17 -8 3 -13 13 -13 22 2 21 -14 20 -53 -4z"/>
<path d="M5870 3101 c0 -10 7 -22 15 -25 21 -8 45 -67 45 -111 0 -35 0 -35 45
-35 41 0 45 -2 45 -25 0 -24 -2 -25 -75 -25 -68 0 -75 -2 -75 -20 0 -19 7 -20
95 -20 l95 0 0 49 c0 53 -11 68 -57 80 -22 6 -29 15 -36 47 -9 44 -21 62 -57
87 -31 22 -40 21 -40 -2z"/>
<path d="M7450 3099 c0 -11 9 -32 19 -45 11 -14 22 -42 26 -64 6 -34 10 -40
32 -40 38 0 63 -18 63 -45 0 -24 -2 -25 -70 -25 -64 0 -70 -2 -70 -20 0 -20 5
-21 88 -18 l87 3 3 31 c5 50 -14 84 -57 101 -31 12 -40 22 -45 47 -7 38 -30
72 -57 86 -16 9 -19 7 -19 -11z"/>
<path d="M8200 3107 c0 -8 10 -22 21 -33 26 -23 49 -74 49 -109 0 -21 5 -25
29 -25 45 0 61 -10 61 -36 0 -23 -2 -24 -81 -24 -71 0 -80 -2 -77 -17 3 -16
16 -18 98 -18 l95 0 3 42 c4 48 -22 83 -62 83 -20 0 -24 6 -30 41 -5 28 -18
53 -40 75 -35 35 -66 44 -66 21z"/>
<path d="M9627 3091 c-33 -22 -32 -24 72 -80 72 -40 72 -40 107 -24 19 9 34
19 34 22 0 8 -163 101 -176 101 -5 0 -22 -8 -37 -19z"/>
<path d="M9580 2943 l0 -98 88 -53 87 -52 3 97 c3 112 9 102 -108 166 l-70 38
0 -98z"/>
<path d="M9875 2991 l-80 -48 -3 -103 -3 -102 43 26 c24 14 64 38 90 53 l48
28 0 98 c0 53 -3 97 -7 97 -5 -1 -44 -22 -88 -49z"/>
<path d="M1127 2180 c-27 -5 -59 -16 -73 -24 -24 -16 -24 -17 -24 -186 0 -136
3 -171 15 -183 45 -46 199 -56 273 -18 l42 21 0 176 0 175 -42 19 c-54 23
-129 31 -191 20z m163 -23 c65 -33 -10 -72 -122 -64 -67 4 -98 18 -98 42 0 8
12 18 28 23 39 15 163 14 192 -1z"/>
<path d="M1912 2180 c-23 -5 -54 -15 -70 -22 l-27 -13 -3 -160 c-1 -88 0 -170
3 -182 15 -62 228 -78 299 -22 l26 20 0 163 c0 177 -2 182 -60 204 -41 15
-122 21 -168 12z m175 -32 c20 -21 10 -35 -35 -48 -76 -21 -197 -3 -197 30 0
28 46 41 133 37 58 -2 87 -8 99 -19z"/>
<path d="M2580 2183 c-36 -13 -40 -34 -40 -215 0 -177 0 -179 25 -203 24 -25
27 -25 190 -25 163 0 166 0 190 25 24 23 25 28 25 178 l0 154 -50 47 -49 46
-138 -1 c-76 0 -145 -3 -153 -6z m290 -58 c0 -33 2 -35 35 -35 l36 0 -3 -157
-3 -158 -174 -3 c-119 -2 -178 1 -187 9 -11 9 -14 49 -14 179 0 93 3 175 6
184 5 14 28 16 155 16 l149 0 0 -35z"/>
<path d="M8117 2172 c-14 -16 -12 -21 30 -65 l45 -48 24 22 24 22 0 -76 0 -77
-70 0 c-38 0 -70 3 -70 7 0 3 8 15 17 25 16 18 15 21 -30 65 -45 46 -46 47
-67 28 -17 -16 -20 -30 -20 -109 l0 -92 68 -67 68 -67 69 0 69 0 -54 55 c-30
31 -60 53 -67 50 -9 -3 -13 7 -13 35 0 39 1 40 36 40 29 0 34 -3 30 -17 -3
-12 14 -39 52 -81 l57 -63 37 38 36 38 -39 44 c-30 34 -42 42 -51 33 -22 -22
-29 -12 -26 36 l3 47 48 3 c48 3 57 -4 35 -26 -10 -10 -3 -21 30 -55 l42 -42
0 90 0 91 -68 67 -68 67 -80 0 c-64 0 -84 -4 -97 -18z"/>
<path d="M9630 2179 c11 -8 12 -12 3 -16 -10 -3 -13 -52 -13 -194 l0 -189 80
0 80 0 0 49 c0 37 -4 50 -17 55 -18 7 -25 1 -55 -54 -14 -25 -23 -31 -45 -28
-46 5 -43 42 9 96 23 25 35 40 26 33 -15 -11 -20 -8 -38 21 -60 98 29 224 142
201 74 -15 127 -117 95 -182 -16 -33 -13 -41 15 -41 17 0 18 11 18 130 l0 130
-157 0 c-114 0 -154 -3 -143 -11z"/>
<path d="M4978 2143 c-8 -10 -34 -54 -57 -97 -42 -77 -43 -80 -28 -110 l16
-31 0 48 c2 88 -1 87 181 87 l160 0 26 -39 c22 -33 24 -43 14 -63 -11 -22 -10
-22 4 -4 9 11 16 24 16 30 0 6 -25 52 -55 103 l-56 93 -103 0 c-86 0 -105 -3
-118 -17z"/>
<path d="M6633 2145 c-17 -7 -41 -27 -54 -44 -17 -23 -31 -31 -54 -31 -79 0
-119 -105 -60 -160 30 -28 95 -39 95 -16 0 13 10 16 49 16 44 0 50 -3 53 -22
2 -19 10 -24 42 -26 21 -2 43 1 49 7 6 6 27 11 47 11 59 0 91 40 64 79 -8 11
-22 21 -30 21 -10 0 -14 12 -14 38 0 50 -29 101 -71 124 -40 21 -72 22 -116 3z"/>
<path d="M464 2140 c-12 -5 -25 -13 -28 -19 -4 -6 -20 -8 -36 -4 -19 3 -39 0
-55 -11 -37 -25 -31 -43 17 -49 35 -5 47 -1 71 19 16 13 37 24 47 24 11 0 23
7 28 15 7 14 12 13 36 -6 l27 -21 -22 -24 c-23 -25 -49 -32 -49 -14 0 15 -26
12 -40 -5 -10 -12 -9 -15 7 -15 27 0 70 -35 79 -63 10 -32 34 -56 50 -50 8 3
21 18 29 34 17 31 6 75 -20 85 -8 4 -15 15 -15 26 0 30 -18 56 -50 73 -32 17
-45 18 -76 5z"/>
<path d="M3312 2008 l3 -143 100 -5 100 -5 20 -37 20 -38 66 0 66 0 32 51 c17
28 31 56 31 62 -1 22 -60 107 -75 107 -12 0 -15 15 -15 75 l0 75 -175 0 -176
0 3 -142z m248 15 c0 -15 -34 -83 -42 -83 -4 0 -8 -5 -8 -12 0 -23 -34 -48
-66 -48 l-32 0 0 75 0 75 74 0 c41 0 74 -3 74 -7z"/>
<path d="M4182 2118 c-11 -18 -34 -60 -53 -94 l-33 -60 53 -92 53 -92 111 0
112 1 53 89 c28 48 52 91 52 95 0 4 -23 47 -52 96 l-52 89 -112 0 -112 0 -20
-32z m220 -55 c27 -25 28 -31 28 -115 0 -76 -2 -89 -19 -98 -28 -14 -184 -13
-199 2 -16 16 -16 210 0 226 7 7 42 12 87 12 68 0 78 -3 103 -27z"/>
<path d="M4220 1965 l0 -96 93 3 92 3 3 73 c3 65 1 72 -16 72 -10 0 -23 -10
-29 -22 -7 -17 -19 -22 -51 -24 l-41 -2 3 36 c3 47 26 55 27 10 1 -22 3 -26 6
-11 6 32 29 48 48 33 12 -10 15 -10 15 4 0 13 -12 16 -75 16 l-75 0 0 -95z"/>
<path d="M5742 2118 c-11 -18 -34 -60 -53 -94 l-33 -60 53 -92 53 -92 111 0
112 1 53 89 c28 48 52 91 52 95 0 4 -23 47 -52 96 l-52 89 -112 0 -112 0 -20
-32z m38 -153 c0 -57 4 -95 10 -95 6 0 10 14 10 30 l0 30 95 0 c103 0 101 1
89 -59 l-7 -32 -106 3 -106 3 -3 108 c-2 69 1 107 8 107 6 0 10 -36 10 -95z
m207 37 l-2 -57 -92 -2 -93 -2 0 59 0 60 95 -1 94 -1 -2 -56z"/>
<path d="M8894 2109 c-27 -28 -29 -37 -33 -115 -3 -80 -4 -85 -30 -99 -15 -7
-33 -21 -40 -29 -12 -14 8 -16 203 -16 119 0 216 2 216 5 0 3 -21 19 -47 35
-34 22 -59 30 -92 30 l-44 0 24 26 24 27 -23 -12 c-33 -17 -38 -7 -18 31 37
69 -6 135 -68 106 -35 -15 -42 -50 -21 -99 18 -40 14 -62 -7 -41 -24 24 -31
11 -8 -13 l23 -25 -42 0 -43 0 3 79 c4 72 7 83 33 110 17 17 27 31 25 31 -3 0
-18 -14 -35 -31z"/>
<path d="M7452 2105 c-10 -22 -17 -25 -54 -23 -33 2 -43 -1 -43 -12 0 -12 11
-14 51 -12 82 6 144 -34 144 -92 0 -54 -57 -84 -108 -57 -23 12 -92 -43 -75
-60 8 -8 16 -8 31 0 31 16 41 14 54 -14 15 -32 46 -32 58 0 9 22 15 25 52 23
34 -2 42 0 39 12 -15 58 -14 61 18 73 38 14 40 34 6 47 -32 12 -41 34 -27 65
13 28 -4 50 -28 35 -26 -17 -50 -11 -60 15 -12 32 -43 32 -58 0z"/>
<path d="M265 1995 c-14 -13 -25 -35 -25 -49 0 -14 -6 -29 -14 -33 -27 -16
-38 -51 -24 -80 22 -46 50 -54 186 -51 116 3 125 4 143 27 25 30 24 73 -1 96
-11 10 -20 26 -20 35 0 28 -34 50 -77 50 -24 0 -46 6 -53 15 -20 25 -87 19
-115 -10z"/>
<path d="M5264 1895 c-5 -12 -34 -15 -170 -15 -90 0 -164 -2 -164 -4 0 -2 12
-24 26 -50 l26 -46 112 0 c107 0 113 1 124 23 6 12 23 41 37 65 14 23 23 42
20 42 -3 0 -8 -7 -11 -15z"/>
<path d="M9812 1828 c3 -69 4 -72 31 -79 15 -4 39 -4 55 0 26 7 27 11 30 73
l3 67 -29 -11 c-31 -12 -86 -3 -77 12 3 6 1 10 -5 10 -7 0 -10 -24 -8 -72z"/>
<path d="M8825 1814 c53 -40 203 -50 292 -20 29 10 55 22 58 27 4 5 -69 9
-182 9 -169 -1 -186 -2 -168 -16z"/>
<path d="M245 1190 c-3 -6 0 -7 9 -4 9 3 16 1 16 -5 0 -6 -7 -11 -15 -11 -13
0 -15 -27 -13 -207 l3 -208 170 0 170 0 0 220 0 220 -167 3 c-105 1 -169 -1
-173 -8z m245 -52 c39 -27 70 -81 70 -123 0 -74 -71 -145 -145 -145 -39 0 -43
-3 -60 -40 -10 -22 -24 -45 -31 -51 -18 -15 -60 -4 -68 17 -11 29 2 50 65 103
34 28 57 51 52 51 -6 0 -18 -9 -28 -20 -25 -27 -32 -25 -55 13 -76 125 80 277
200 195z"/>
<path d="M5038 1186 c-63 -17 -111 -56 -138 -112 -80 -164 62 -350 239 -313
45 9 63 20 106 63 42 41 55 62 63 102 35 162 -111 303 -270 260z m232 -126
c37 -72 21 -164 -20 -115 -7 8 -9 15 -6 15 4 0 2 9 -4 20 -6 11 -21 20 -33 20
-13 0 -38 15 -56 34 l-32 33 38 16 c66 27 90 23 113 -23z m-127 -44 c15 -11
27 -29 27 -42 0 -29 24 -48 52 -41 34 9 60 -18 46 -49 -9 -20 -19 -24 -53 -24
-29 0 -47 6 -60 20 -10 11 -30 20 -44 20 -45 0 -71 26 -71 70 0 30 6 43 26 59
27 21 30 21 77 -13z m-93 -122 c22 -15 40 -32 40 -39 0 -19 28 -27 51 -15 23
13 92 2 83 -12 -12 -19 -89 -48 -130 -48 -70 0 -140 39 -130 71 2 8 7 26 10
42 8 34 26 34 76 1z"/>
<path d="M7395 1191 c-75 -19 -130 -68 -154 -140 -14 -42 -14 -65 0 -115 12
-43 83 -126 96 -112 4 5 2 11 -4 13 -8 3 -13 23 -13 49 0 49 19 66 50 46 10
-6 23 -7 31 -2 11 7 10 10 -4 16 -26 10 -22 66 6 92 13 12 27 22 31 22 18 0
76 -54 76 -71 0 -22 17 -34 50 -34 16 0 28 -8 35 -23 14 -31 29 -22 38 24 17
77 -25 167 -95 207 -49 28 -100 38 -143 28z"/>
<path d="M7992 978 l3 -223 48 -3 c33 -2 47 1 47 10 0 7 -14 79 -31 160 -17
81 -29 153 -26 162 3 8 30 19 61 26 53 11 55 13 45 33 -25 48 -40 57 -96 57
l-53 0 2 -222z"/>
<path d="M8238 1179 c-43 -32 -35 -41 31 -33 l60 6 9 -38 c5 -22 23 -110 40
-198 17 -87 34 -161 37 -164 20 -20 25 32 23 229 l-3 214 -85 2 c-73 2 -89 0
-112 -18z"/>
<path d="M3559 1111 l-86 -80 -53 38 c-47 34 -57 37 -82 29 l-28 -10 0 -109
c0 -98 2 -109 20 -119 17 -9 30 -4 81 31 l61 41 88 -87 88 -88 56 23 56 22 0
174 0 174 -37 15 c-73 31 -72 31 -164 -54z"/>
<path d="M4102 1168 c-13 -13 -18 -262 -6 -292 5 -13 22 -16 79 -16 76 0 91
-7 80 -39 -4 -13 -19 -21 -50 -26 -90 -13 -43 -25 101 -25 90 0 143 4 139 10
-3 5 -21 12 -40 16 -35 6 -48 23 -39 49 5 11 23 15 78 15 43 0 77 5 84 12 17
17 17 279 0 296 -17 17 -409 17 -426 0z m403 -148 l0 -135 -190 0 -190 0 -3
124 c-1 69 0 131 2 138 4 11 45 13 193 11 l188 -3 0 -135z"/>
<path d="M974 1157 c-2 -7 -3 -91 -2 -187 l3 -175 213 -3 212 -2 0 190 0 190
-210 0 c-162 0 -212 -3 -216 -13z"/>
<path d="M6437 1154 c-11 -11 -8 -289 2 -299 6 -6 87 -9 196 -7 l186 3 -3 152
-3 152 -186 3 c-102 1 -188 -1 -192 -4z m269 -68 c29 -29 34 -41 34 -81 0 -40
-5 -52 -34 -81 -28 -28 -42 -34 -75 -34 -49 0 -86 22 -107 61 -40 79 15 169
105 169 36 0 49 -6 77 -34z"/>
<path d="M9557 1154 c-11 -11 -8 -289 2 -299 6 -6 87 -9 196 -7 l186 3 -3 152
-3 152 -186 3 c-102 1 -188 -1 -192 -4z m218 -54 c20 17 45 -3 38 -30 -4 -15
0 -20 15 -20 25 0 35 -25 16 -41 -11 -9 -12 -15 -3 -25 15 -18 -7 -48 -29 -39
-8 3 -16 -3 -19 -14 -7 -26 -34 -36 -46 -16 -6 12 -12 13 -22 5 -19 -16 -47
-1 -40 21 5 14 1 19 -14 19 -27 0 -39 40 -17 52 13 7 14 13 6 23 -16 19 -1 47
21 40 14 -5 19 -1 19 14 0 24 31 33 47 13 10 -12 15 -13 28 -2z"/>
<path d="M1754 1137 c-2 -7 -3 -85 -2 -172 l3 -160 220 0 220 0 0 170 0 170
-218 3 c-172 2 -219 0 -223 -11z m326 -122 l0 -75 -35 0 c-19 0 -35 -4 -35
-10 0 -5 9 -10 20 -10 11 0 20 -4 20 -10 0 -6 -28 -10 -64 -10 -36 0 -68 5
-71 10 -3 6 3 10 14 10 34 0 24 18 -11 22 l-33 3 -3 73 -3 72 101 0 100 0 0
-75z"/>
<path d="M1900 1015 l0 -55 80 0 80 0 0 55 0 55 -80 0 -80 0 0 -55z"/>
<path d="M5654 1137 c-2 -7 -3 -85 -2 -172 l3 -160 220 0 220 0 0 170 0 170
-218 3 c-172 2 -219 0 -223 -11z m307 -66 c35 -35 39 -44 39 -91 0 -47 -4 -56
-39 -91 -32 -33 -45 -39 -80 -39 -54 0 -97 22 -121 63 -55 89 11 197 119 197
37 0 49 -6 82 -39z"/>
<path d="M8774 1137 c-2 -7 -3 -85 -2 -172 l3 -160 220 0 220 0 0 170 0 170
-218 3 c-172 2 -219 0 -223 -11z m244 -60 c25 15 55 -2 47 -27 -4 -14 0 -19
17 -22 28 -4 36 -35 13 -52 -15 -11 -15 -13 -1 -25 22 -18 3 -53 -27 -49 -16
2 -23 -3 -25 -19 -4 -25 -30 -31 -50 -11 -8 8 -15 8 -27 -2 -20 -17 -47 4 -43
34 2 15 -3 22 -19 24 -29 4 -39 33 -17 49 14 10 15 15 4 28 -16 19 2 45 31 45
12 0 19 7 19 19 0 25 31 32 48 12 10 -12 16 -13 30 -4z"/>
<path d="M8186 1065 c-59 -13 -110 -26 -112 -28 -2 -2 6 -54 18 -115 18 -89
26 -112 38 -109 12 2 14 15 12 59 -3 50 -1 56 20 61 14 4 29 0 42 -11 14 -13
20 -14 23 -4 8 21 34 42 53 42 13 0 20 -10 25 -32 12 -58 16 -68 31 -68 8 0
14 3 14 8 0 23 -44 222 -49 221 -3 0 -55 -11 -115 -24z"/>
<path d="M7403 906 c1 -6 -6 -10 -17 -8 -13 3 -17 -1 -13 -12 3 -8 2 -18 -4
-21 -5 -4 -7 -11 -3 -16 3 -5 0 -16 -6 -24 -10 -12 -9 -15 5 -15 11 0 15 -5
11 -15 -4 -10 1 -15 14 -15 11 0 20 -3 20 -7 0 -5 11 -9 25 -9 14 -1 25 2 25
7 0 5 9 9 20 9 13 0 18 5 14 15 -4 8 -2 15 3 15 6 0 10 13 9 30 -1 16 -4 30
-8 30 -5 0 -8 7 -8 15 0 8 -7 15 -15 15 -8 0 -15 4 -15 8 0 5 -13 9 -29 9 -17
0 -29 -5 -28 -11z"/>
</g>
</svg>
